<svg height="512" viewBox="0 0 60 60" width="512" xmlns="http://www.w3.org/2000/svg">
    <g id="Page-1" fill="none" fill-rule="evenodd">
        <g id="010---Shark" fill="#5260ff">
            <path id="Shape"
                  d="m3.02 60h53.961c.8076086.0025549 1.5818111-.322134 2.146-.9.5623808-.5673972.8711597-1.3382623.856-2.137-.573-34.074-15.965-56.963-29.983-56.963-11.838 0-29.326 20.284-29.982 56.961-.01562437.799219.29277505 1.5707586.855 2.139.56462767.577826 1.3391132.9024822 2.147.9zm26.98-58c11.345 0 27.38 19.112 27.983 55 .0046868.2618966-.0970725.5144908-.282.7-.1894983.1933362-.4492862.3015811-.72.3h-53.961c-.27071382.0015811-.53050171-.1066638-.72-.3-.18492745-.1855092-.28668682-.4381034-.282-.7.609-34.077 16.708-55 27.982-55z"/>
            <path id="Shape"
                  d="m16 56c2 0 3.713-1.033 5.525-2.126 2.235-1.347 4.767-2.874 8.475-2.874s6.24 1.527 8.475 2.874c1.812 1.093 3.525 2.126 5.525 2.126 2.992 0 8 0 8-11 0-10.385-9.408-22-22-22s-22 11.615-22 22c0 11 5.008 11 8 11zm-2.867-2.367c.214-1.196.767-2.633 1.867-2.633 1.279 0 1.737 1.772 1.9 2.888-.2948875.070763-.5967631.1083297-.9.112-.970218.0583209-1.9427561-.0661721-2.867-.367zm5.867-8.633c-.0230748-4.2452674 2.3988446-8.1248831 6.2229869-9.9684565 3.8241424-1.8435734 8.3678264-1.321992 11.6747431 1.3401744 3.3069166 2.6621664 4.7867191 6.989671 3.80227 11.1192821-.5082525-.3224258-1.0981065-.4927895-1.7-.491-.9408501-.0053131-1.8382306.3956287-2.462 1.1-.226464-.7582529-.6147258-1.4583524-1.138-2.052-.6172568-.6709708-1.4883001-1.0513264-2.4-1.048-1.271627.0073492-2.4312449.7286316-3 1.866-.5687551-1.1373684-1.728373-1.8586508-3-1.866-.9099612-.0019216-1.778919.3783154-2.395 1.048-.5250892.5933281-.9153773 1.2933903-1.144 2.052-.6233015-.7044317-1.5204154-1.1054172-2.461-1.1-.6018935-.0017895-1.1917475.1685742-1.7.491-.1948687-.8161398-.2955259-1.6519303-.3-2.491zm15.911 4.855c-1.1783746-.4203965-2.4062709-.6862783-3.653-.791.254-1.018.754-2.064 1.742-2.064.3618557-.0030358.706866.1526574.944.426.5477518.7006669.8833217 1.5435825.967 2.429zm-6.169-.791c-1.2467291.1047217-2.4746254.3706035-3.653.791.0836783-.8854175.4192482-1.7283331.967-2.429.237134-.2733426.5821443-.4290358.944-.426.988 0 1.488 1.046 1.742 2.064zm-8.25 3.1c-.515.31-1.006.6-1.485.865-.029507-1.1253586.2348511-2.2389716.767-3.231.2232192-.477885.69866-.7873481 1.226-.798.927 0 1.424.923 1.693 1.905-.793.415-1.524.849-2.201 1.257zm16.815-1.257c.269-.984.766-1.907 1.693-1.907.5277964.0110203 1.0033547.3213356 1.226.8.5326279.9918465.7970167 2.1055885.767 3.231-.479-.262-.97-.555-1.485-.865-.677-.412-1.408-.846-2.201-1.261zm5.793 2.98c.167-1.163.635-2.887 1.9-2.887 1.1 0 1.653 1.437 1.867 2.633-.9242439.3008279-1.896782.4253209-2.867.367-.3032481-.004378-.6050822-.042275-.9-.113zm3.617-19.33c.843177 1.3019261 1.5435561 2.6909497 2.089 4.143-.2216699.1973198-.5092617.3043639-.806.3-1.634 0-1.933-2.82-1.988-3.72.2636997-.209624.4990076-.4526635.7-.723zm-1.276-1.757c-.1818107.4533043-.506123.8351785-.924 1.088-.1606572.0788322-.3381218.1172771-.517.112-1.759 0-1.972-3.268-2-3.89.1026846-.1753377.1961451-.3559168.28-.541 1.1619159.9654935 2.2211837 2.0482187 3.161 3.231zm-25.616-3.526c-.1897518-.2972637-.3400135-.6179563-.447-.954 1.1303176-.7664448 2.3367064-1.4142085 3.6-1.933-.069 1.004-.409 3.613-1.978 3.613-.4960186-.0052909-.9483382-.2847667-1.175-.726zm19.175.726c-1.57 0-1.909-2.61-1.981-3.613 1.2632936.5187915 2.4696824 1.1665552 3.6 1.933-.1094486.3397559-.2620271.664069-.454.965-.226444.4352353-.6744052.7101643-1.165.715zm-4.182-4.353c-.218.965-.712 2.353-1.818 2.353-1.3 0-1.753-1.782-1.913-2.967 1.2615314.0752884 2.5118707.2810532 3.731.614zm-5.9-.614c-.165 1.185-.618 2.967-1.918 2.967-1.106 0-1.6-1.388-1.818-2.353 1.2191293-.3329468 2.4694686-.5387116 3.731-.614zm-11.2 4.536c.0834487.1852799.1769203.3658804.28.541-.024.626-.238 3.89-2 3.89-.1928083.0027057-.3831271-.0437555-.553-.135-.4031082-.2517373-.7144662-.6265591-.888-1.069.9393938-1.1812901 1.9979814-2.2626646 3.159-3.227zm-3.729 5.713c-.056.905-.357 3.718-1.989 3.718-.2967383.0043639-.5843301-.1026802-.806-.3.5466378-1.4516204 1.248369-2.8399953 2.093-4.141.2004199.2708223.4357962.5139325.7.723zm-3.412 5.379c.4414559.2222891.9287375.3383737 1.423.339 2.723 0 3.723-2.8 3.947-5.006.018 0 .034.006.053.006 2.414 0 3.472-2.2 3.838-4.237.3691286.1508911.7632629.2312782 1.162.237 1.975 0 3.044-1.476 3.568-3.127.6094964.70975 1.4964829 1.1207836 2.432 1.127 1.2653502.0035321 2.4251862-.7047411 3-1.832.5748138 1.1272589 1.7346498 1.8355321 3 1.832.9355171-.0062164 1.8225036-.41725 2.432-1.127.524 1.651 1.593 3.127 3.568 3.127.3987371-.0057218.7928714-.0861089 1.162-.237.366 2.037 1.425 4.237 3.838 4.237.019 0 .035-.006.053-.006.224 2.206 1.224 5.006 3.947 5.006.4949384-.0003146.9829403-.1164077 1.425-.339.3744668 1.4161817.5676773 2.8741647.575 4.339 0 3.76-.561 5.935-1.413 7.21-.544-1.76-1.67-3.21-3.587-3.21-.943714-.0011457-1.840274.4123981-2.452 1.131-.0871116-.2679714-.1902988-.5304475-.309-.786 1.9306699-5.391698.1055898-11.4117187-4.4940567-14.8236311-4.5996465-3.4119123-10.8902401-3.4119123-15.4898866 0-4.5996465 3.4119124-6.4247266 9.4319331-4.4940567 14.8236311-.1154965.2517228-.215679.5101937-.3.774-.6171071-.7150955-1.5164591-1.1240247-2.461-1.119-1.917 0-3.043 1.45-3.587 3.21-.852-1.275-1.413-3.45-1.413-7.21.0073227-1.4648353.2005332-2.9228183.575-4.339z"/>
            <path id="Shape"
                  d="m14.409 23.335c.464828.265639.9916348.4036369 1.527.4 1.4488852-.0564664 2.7607488-.8723909 3.452-2.147.5084761-.8586073.7071917-1.8655977.563-2.853-.1191593-.9759749-.6901343-1.8391816-1.5416727-2.3307184s-1.8845958-.5542321-2.7893273-.1692816c-.9269846.3686343-1.6993517 1.0442791-2.188 1.914-1.1475763 1.7049203-.7122782 4.0155199.977 5.186zm.755-4.184c.261505-.4697633.6731713-.8381148 1.169-1.046.1724059-.0665486.3552188-.1020956.54-.105.1878442-.0021204.3728597.0458594.536.139.3159887.2053501.5241658.5407059.568.915.0688587.5336582-.0446105 1.0749277-.322 1.536-.543.939-1.57 1.4-2.246 1.013-.7080868-.6286426-.8147038-1.6956826-.245-2.452z"/>
            <path id="Shape"
                  d="m40.612 21.59c.6912512 1.2746091 2.0031148 2.0905336 3.452 2.147.5353652.0036369 1.062172-.134361 1.527-.4 1.6880469-1.1703696 2.1232303-3.4794697.977-5.184-.4886483-.8697209-1.2610154-1.5453657-2.188-1.914-.9047315-.3849505-1.9377889-.3222552-2.7893273.1692816s-1.4225134 1.3547435-1.5416727 2.3307184c-.1437217.9867492.0549781 1.9929536.563 2.851zm1.411-2.536c.0242311-.3807667.2373375-.7241673.5677724-.9149111s.7343838-.2035386 1.0762276-.0340889c.4958287.2078852.907495.5762367 1.169 1.046.5697038.7563174.4630868 1.8233574-.245 2.452-.674.391-1.7-.074-2.246-1.013-.2769462-.4612462-.3903829-1.0023605-.322-1.536z"/>
        </g>
    </g>
</svg>